<svg version="1.1" xmlns="http://www.w3.org/2000/svg" xmlns:xlink="http://www.w3.org/1999/xlink" width="48" height="48"><defs><linearGradient x1="12.23187" y1="12.6317" x2="38.59656" y2="38.19675" gradientUnits="userSpaceOnUse" id="color-1"><stop offset="0" stop-color="#000000" stop-opacity="0.4"></stop><stop offset="1" stop-color="#000000" stop-opacity="0"></stop></linearGradient><filter id="dropshadow-base"><feColorMatrix type="matrix" values="0 0 0 0 0  0 0 0 0 0  0 0 0 0 0  0 0 0 .8 0"></feColorMatrix> <feOffset dx="0" dy="1"></feOffset> <feGaussianBlur stdDeviation="1"></feGaussianBlur> <feComposite in="SourceGraphic"></feComposite></filter><filter id="dropshadow-banner" x="-10%" y="-10%" width="120%" height="130%"><feColorMatrix type="matrix" values="0 0 0 0 0  0 0 0 0 0  0 0 0 0 0  0 0 0 .4 0"></feColorMatrix> <feOffset dx="0" dy="1"></feOffset> <feGaussianBlur stdDeviation="0.5"></feGaussianBlur> <feComposite in="SourceGraphic"></feComposite></filter></defs><g fill="none" fill-rule="nonzero" stroke="none" stroke-width="none" stroke-linecap="butt" stroke-linejoin="miter" stroke-miterlimit="10" stroke-dasharray="" stroke-dashoffset="0" font-family="none" font-weight="none" font-size="none" text-anchor="none" style="mix-blend-mode: normal"><path d="M7,43c-1.10457,0 -2,-0.89543 -2,-2v-34c0,-1.10457 0.89543,-2 2,-2h34c1.10457,0 2,0.89543 2,2v34c0,1.10457 -0.89543,2 -2,2z" id="base 1 5" fill="#009688" stroke-width="1"></path><path d="M33.48468,37.58259c0,0.33917 -0.27495,0.61412 -0.61412,0.61413l-4.29966,-0.0119c-0.1629,0 -0.3191,-0.06471 -0.43427,-0.17988l-2.82843,-2.82843c-0.00022,-0.00022 -0.00044,-0.00044 -0.00066,-0.00067c-0.11522,-0.11559 -0.1797,-0.27229 -0.17919,-0.43549v-1.45664h-0.24221c-0.16287,0 -0.31908,0.0647 -0.43426,0.17988c-0.11517,0.11517 -0.17988,0.27137 -0.17988,0.43426v3.67363c0,0.33798 -0.27308,0.61244 -0.61106,0.61413l-4.30119,0.01113c-0.16959,0 -0.32312,-0.06874 -0.43426,-0.17988l-2.82843,-2.82843c-0.11114,-0.11114 -0.17987,-0.26467 -0.17987,-0.43426v-3.71513l-2.57074,-2.57074c-0.01051,-0.01051 -0.02055,-0.02156 -0.03007,-0.03314l-0.97877,-1.18988c-0.07791,-0.09415 -0.11521,-0.2154 -0.10369,-0.33706c0.01152,-0.12166 0.07091,-0.23376 0.16511,-0.31161l9.10205,-7.49617l-1.85988,-1.85988c-0.02704,-0.02704 -0.04748,-0.05808 -0.06132,-0.09115l-1.92775,-1.92775c-0.11357,-0.11357 -0.111,-0.29822 0.00702,-0.40739c3.14567,-2.9096 8.04,-2.91067 11.1869,0l0.00031,0.00031c0.00265,0.00245 0.00523,0.00495 0.00776,0.00748l2.82843,2.82843c0.11025,0.11025 0.10991,0.2896 -0.0017,0.4004l-0.02808,0.02786h0.65307c0.18127,0 0.34621,0.0753 0.46936,0.19845l1.18845,1.18845l1.07679,-0.80036c0.19481,-0.14389 0.43482,-0.10298 0.58459,0.04678l2.82843,2.82843c0.08666,0.08666 0.14311,0.20977 0.14311,0.35461v3.99685c0,0.39673 -0.42159,0.62855 -0.72769,0.4014l-1.58244,-1.17462l-0.46201,-0.46201v1.48105c0,0.41073 -0.30898,0.74368 -0.69015,0.74368l-0.67383,0l2.57527,2.57527c0.07479,0.07479 0.12191,0.17347 0.13258,0.27966h-0.00001c0.01225,0.12196 -0.02463,0.24378 -0.10245,0.33848l-0.97877,1.18988c-0.07786,0.09419 -0.18995,0.15359 -0.31161,0.16511c-0.12166,0.01152 -0.24291,-0.02578 -0.33706,-0.10369l-9.02882,-7.43631c-0.17138,-0.13815 -0.41587,-0.13815 -0.58727,0l-0.35838,0.29518l5.19233,4.27431l2.82843,2.82843zM27.45169,21.05939v-1.09606c-0.51894,-0.18851 -1.07004,-0.26631 -1.61563,-0.23318zM28.14184,18.07878l1.8026,0c-0.90696,-0.62598 -1.9334,-1.00677 -2.98571,-1.14243l1.14363,1.14363c0.01307,-0.00079 0.02623,-0.0012 0.03948,-0.0012zM27.84639,15.83263c0.11333,0.1039 0.28881,0.10143 0.39787,-0.00675l0.06279,-0.06229c-0.24258,-0.06752 -0.48768,-0.12377 -0.73446,-0.16875c0.09288,0.07643 0.18418,0.15569 0.2738,0.2378zM33.91476,26.88149l-2.82843,-2.82843h1.21951c0.38117,0 0.69015,-0.33294 0.69015,-0.74368v-2.40218h-2.02573c-0.38117,0 -0.69015,0.33294 -0.69015,0.74368v2.23693l-2.99541,-2.46445c-0.68012,-0.55967 -1.66125,-0.55967 -2.34136,0l-0.4614,0.38l8.12802,6.69439c0.09416,0.07791 0.2154,0.11521 0.33706,0.10369c0.12166,-0.01152 0.23375,-0.07091 0.31161,-0.16511l0.97877,-1.18988c0.01637,-0.01992 0.03093,-0.04103 0.04359,-0.0631zM26.40954,25.46358c-0.17139,-0.13815 -0.41589,-0.13815 -0.58727,0l-7.07666,5.82845l0,4.07056l2.0869,-0.0054c0.33798,-0.00169 0.61106,-0.27615 0.61106,-0.61413v-3.67363c0,-0.16288 0.0647,-0.31908 0.17988,-0.43426c0.11517,-0.11517 0.27138,-0.17988 0.43426,-0.17988h2.4565c0.16288,0 0.31908,0.0647 0.43426,0.17988l2.82843,2.82843c0.11517,0.11517 0.17988,0.27138 0.17988,0.43426l0,1.46468l2.08537,0.00577c0.33917,-0.00001 0.61412,-0.27496 0.61412,-0.61413v-5.79472l-4.2467,-3.49587z" fill="url(#color-1)" stroke-width="1"></path><path d="M23.58113,22.63514l7.07513,5.82423v6.2948c0,0.33917 -0.27495,0.61412 -0.61412,0.61413l-4.29966,-0.0119c-0.16321,0 -0.31971,-0.06497 -0.43493,-0.18055c-0.11523,-0.11559 -0.1797,-0.27229 -0.17919,-0.43549v-3.67094c0,-0.16288 -0.0647,-0.31908 -0.17987,-0.43425c-0.11517,-0.11517 -0.27138,-0.17987 -0.43425,-0.17987h-2.45651c-0.16288,0 -0.31908,0.0647 -0.43425,0.17987c-0.11517,0.11517 -0.17987,0.27138 -0.17987,0.43425v3.67363c0,0.33798 -0.27308,0.61244 -0.61106,0.61413l-4.30119,0.01113c-0.33917,0 -0.61413,-0.27495 -0.61413,-0.61413v-6.29058l7.07666,-5.82845c0.17138,-0.13814 0.41588,-0.13814 0.58726,0zM34.33984,26.90799c0.01225,0.12196 -0.02463,0.24378 -0.10246,0.33848l-0.97877,1.18987c-0.07785,0.09419 -0.18995,0.15359 -0.31161,0.16511c-0.12166,0.01152 -0.24291,-0.02578 -0.33706,-0.10369l-9.02882,-7.43631c-0.17138,-0.13814 -0.41588,-0.13814 -0.58726,0l-9.02843,7.43631c-0.09432,0.0779 -0.21574,0.11508 -0.3375,0.10334c-0.12176,-0.01174 -0.23385,-0.07143 -0.31155,-0.16591l-0.97877,-1.18987c-0.07791,-0.09415 -0.11521,-0.2154 -0.10369,-0.33706c0.01152,-0.12166 0.07091,-0.23376 0.16511,-0.31161l9.71587,-8.00169c0.68012,-0.55967 1.66124,-0.55967 2.34136,0l2.99541,2.46445v-2.23694c0,-0.41073 0.30898,-0.74367 0.69015,-0.74367h4.16401c0.38117,0 0.69015,0.33294 0.69015,0.74367v4.48693c0,0.41073 -0.30898,0.74367 -0.69015,0.74367h-1.21951l3.08581,2.54358c0.0951,0.07733 0.15546,0.18938 0.16771,0.31135zM28.84605,14.81431c0.11828,0.10942 0.12065,0.29474 0.00638,0.40817l-0.60817,0.60338c-0.10906,0.10818 -0.28454,0.11066 -0.39787,0.00676c-2.59237,-2.37497 -6.59559,-2.37443 -9.18743,0c-0.11332,0.10389 -0.28874,0.10152 -0.39787,-0.00676l-0.60817,-0.60339c-0.11438,-0.1135 -0.11207,-0.29876 0.00623,-0.40817c3.14566,-2.90961 8.04,-2.91067 11.18691,0zM26.85247,16.83085c0.12237,0.10817 0.1264,0.2964 0.00994,0.41119l-0.61173,0.60372c-0.10657,0.10533 -0.27817,0.11226 -0.39165,0.01421c-1.48757,-1.28615 -3.72187,-1.28899 -5.21299,0c-0.1135,0.09805 -0.28516,0.09103 -0.39166,-0.01421l-0.61171,-0.60374c-0.11635,-0.11474 -0.11245,-0.30285 0.01011,-0.41119c2.04495,-1.80853 5.15242,-1.81049 7.19968,0zM35.76813,19.06672v3.99685c0,0.39672 -0.4216,0.62854 -0.72769,0.4014l-1.58243,-1.17463v-2.44883l1.58243,-1.17618c0.30754,-0.22715 0.72769,0.00622 0.72769,0.4014z" id="path10 1 1" fill="none" stroke-width="0"></path><path d="M23.58113,22.63514l7.07513,5.82423v6.2948c0,0.33917 -0.27495,0.61412 -0.61412,0.61413l-4.29966,-0.0119c-0.16321,0 -0.31971,-0.06497 -0.43493,-0.18055c-0.11523,-0.11559 -0.1797,-0.27229 -0.17919,-0.43549v-3.67094c0,-0.16288 -0.0647,-0.31908 -0.17987,-0.43425c-0.11517,-0.11517 -0.27138,-0.17987 -0.43425,-0.17987h-2.45651c-0.16288,0 -0.31908,0.0647 -0.43425,0.17987c-0.11517,0.11517 -0.17987,0.27138 -0.17987,0.43425v3.67363c0,0.33798 -0.27308,0.61244 -0.61106,0.61413l-4.30119,0.01113c-0.33917,0 -0.61413,-0.27495 -0.61413,-0.61413v-6.29058l7.07666,-5.82845c0.17138,-0.13814 0.41588,-0.13814 0.58726,0zM34.33984,26.90799c0.01225,0.12196 -0.02463,0.24378 -0.10246,0.33848l-0.97877,1.18987c-0.07785,0.09419 -0.18995,0.15359 -0.31161,0.16511c-0.12166,0.01152 -0.24291,-0.02578 -0.33706,-0.10369l-9.02882,-7.43631c-0.17138,-0.13814 -0.41588,-0.13814 -0.58726,0l-9.02843,7.43631c-0.09432,0.0779 -0.21574,0.11508 -0.3375,0.10334c-0.12176,-0.01174 -0.23385,-0.07143 -0.31155,-0.16591l-0.97877,-1.18987c-0.07791,-0.09415 -0.11521,-0.2154 -0.10369,-0.33706c0.01152,-0.12166 0.07091,-0.23376 0.16511,-0.31161l9.71587,-8.00169c0.68012,-0.55967 1.66124,-0.55967 2.34136,0l2.99541,2.46445v-2.23694c0,-0.41073 0.30898,-0.74367 0.69015,-0.74367h4.16401c0.38117,0 0.69015,0.33294 0.69015,0.74367v4.48693c0,0.41073 -0.30898,0.74367 -0.69015,0.74367h-1.21951l3.08581,2.54358c0.0951,0.07733 0.15546,0.18938 0.16771,0.31135zM28.84605,14.81431c0.11828,0.10942 0.12065,0.29474 0.00638,0.40817l-0.60817,0.60338c-0.10906,0.10818 -0.28454,0.11066 -0.39787,0.00676c-2.59237,-2.37497 -6.59559,-2.37443 -9.18743,0c-0.11332,0.10389 -0.28874,0.10152 -0.39787,-0.00676l-0.60817,-0.60339c-0.11438,-0.1135 -0.11207,-0.29876 0.00623,-0.40817c3.14566,-2.90961 8.04,-2.91067 11.18691,0zM26.85247,16.83085c0.12237,0.10817 0.1264,0.2964 0.00994,0.41119l-0.61173,0.60372c-0.10657,0.10533 -0.27817,0.11226 -0.39165,0.01421c-1.48757,-1.28615 -3.72187,-1.28899 -5.21299,0c-0.1135,0.09805 -0.28516,0.09103 -0.39166,-0.01421l-0.61171,-0.60374c-0.11635,-0.11474 -0.11245,-0.30285 0.01011,-0.41119c2.04495,-1.80853 5.15242,-1.81049 7.19968,0zM35.76813,19.06672v3.99685c0,0.39672 -0.4216,0.62854 -0.72769,0.4014l-1.58243,-1.17463v-2.44883l1.58243,-1.17618c0.30754,-0.22715 0.72769,0.00622 0.72769,0.4014z" id="path10 1 1" fill="#ffffff" stroke-width="0"></path><path d="M2,24c0,-12.15026 9.84974,-22 22,-22c12.15026,0 22,9.84974 22,22c0,12.15026 -9.84974,22 -22,22c-12.15026,0 -22,-9.84974 -22,-22z" id="base 1 1 1" fill="none" stroke-width="1"></path><g id="svg8 1 1" fill="#000000" stroke-width="1" font-family="Roboto, sans-serif" font-weight="400" font-size="14" text-anchor="start"><g id="layer1 1 1"><g id="g21 1 1"></g></g></g><rect x="2" y="2" width="44" height="22" fill="none" stroke-width="1"></rect><path d="M2,24v-22h44v22z" fill="none" stroke-width="1"></path><path d="M2,24v-22h44v22z" fill="none" stroke-width="1"></path><path d="M2,24v-22h44v22z" fill="none" stroke-width="1"></path><path d="M2,24v-22h44v22z" fill="none" stroke-width="1"></path></g></svg>